PathFileType	4	(X/Y/Z)	C:/Users/opensim2020/Desktop/walking_exp_matlab/subject01/subject01_trc/subject01_walking16_run_cyclic.trc	
DataRate	CameraRate	NumFrames	NumMarkers	Units	OrigDataRate	OrigDataStartFrame	OrigNumFrames	
100.00	100.00	4	63	mm	100.00	363	54	
Frame#	Time	LKNE			RELB			LTHI			RUPA			LTIB			RFRM			LTOE			LSHO			RWRA			RSHO			RWRB			STRN			RFIN			RBHD			CLAV			LHEE			LFHD			RASI			RFHD			LBHD			C7			LWRB			LWRA			LFRM			RTHI			RKNE			LELB			LFIN			LUPA			RTIB			RANK			RTOE			RHEE			T10			RBAK			LASI			LPSI			RPSI			LANK			*39			*40			*41			*42			*43			*44			*45			*46			*47			*48			*49			*50			*51			*52			*53			*54			*55			*56			*57			*58			*59			*60			*61			*62			
		X1	Y1	Z1	X2	Y2	Z2	X3	Y3	Z3	X4	Y4	Z4	X5	Y5	Z5	X6	Y6	Z6	X7	Y7	Z7	X8	Y8	Z8	X9	Y9	Z9	X10	Y10	Z10	X11	Y11	Z11	X12	Y12	Z12	X13	Y13	Z13	X14	Y14	Z14	X15	Y15	Z15	X16	Y16	Z16	X17	Y17	Z17	X18	Y18	Z18	X19	Y19	Z19	X20	Y20	Z20	X21	Y21	Z21	X22	Y22	Z22	X23	Y23	Z23	X24	Y24	Z24	X25	Y25	Z25	X26	Y26	Z26	X27	Y27	Z27	X28	Y28	Z28	X29	Y29	Z29	X30	Y30	Z30	X31	Y31	Z31	X32	Y32	Z32	X33	Y33	Z33	X34	Y34	Z34	X35	Y35	Z35	X36	Y36	Z36	X37	Y37	Z37	X38	Y38	Z38	X39	Y39	Z39	X40	Y40	Z40	X41	Y41	Z41	X42	Y42	Z42	X43	Y43	Z43	X44	Y44	Z44	X45	Y45	Z45	X46	Y46	Z46	X47	Y47	Z47	X48	Y48	Z48	X49	Y49	Z49	X50	Y50	Z50	X51	Y51	Z51	X52	Y52	Z52	X53	Y53	Z53	X54	Y54	Z54	X55	Y55	Z55	X56	Y56	Z56	X57	Y57	Z57	X58	Y58	Z58	X59	Y59	Z59	X60	Y60	Z60	X61	Y61	Z61	X62	Y62	Z62	X63	Y63	Z63	

1	0.000	-537.58221	-926.27130	624.97705	-168.03419	-1105.73645	1043.65833	-553.89124	-1010.31201	729.68823	-163.49713	-1104.57849	1175.81763	-553.26373	-958.65314	438.50769	-263.83258	-1020.43262	1041.10046	-501.97839	-864.11469	122.48847	-565.17792	-1123.42969	1376.71582	-362.34650	-970.31995	1123.85852	-273.40317	-1073.69543	1361.07971	-355.57721	-945.75214	1074.95935	-442.57199	-1037.84485	1164.29236	-400.38489	-898.78296	1121.40417	-328.33426	-1166.11902	1575.90833	-426.40631	-1047.70068	1326.95203	-449.60306	-1031.76147	200.87137	-464.32300	-1089.09277	1638.82166	-283.41281	-1190.37915	898.75018	-354.60233	-1065.98425	1648.58350	-445.48645	-1189.48474	1569.06238	-395.87427	-1185.17188	1408.88000	-788.85596	-1344.39282	1007.50323	-759.14075	-1293.63855	1004.78540	-765.06476	-1358.68689	1131.58459	-243.03734	-1378.22534	604.27356	-265.24503	-1447.68445	460.64441	-716.93286	-1377.51245	1245.60071	-814.37512	-1294.18994	940.25781	-657.69312	-1261.56213	1320.35254	-257.39987	-1593.85901	361.29172	-292.27264	-1735.04504	203.87149	-329.94586	-1738.03552	50.83135	-342.42941	-1773.17847	231.95331	-384.62091	-1282.82556	1139.05176	-306.90710	-1261.06726	1236.88757	-489.96698	-1160.61743	924.57440	-467.16638	-1342.79053	954.93970	-329.70151	-1358.12854	954.57715	-509.39352	-1007.55383	237.53070	-3102.03687	1972.96277	1023.92328	-3140.71216	2012.49670	1022.13971							-505.62390	-987.11145	213.66191	-297.64795	-1250.11230	1238.64417													-373.70074	-1089.63306	1678.77026																																							 
2	0.010	-540.43494	-881.79968	618.41364	-167.59175	-1055.55591	1048.73657	-555.12317	-963.35089	725.03967	-166.00877	-1054.17212	1181.23511	-555.99146	-900.28235	428.97513	-265.02448	-972.91156	1049.66028	-502.24744	-778.23816	120.15517	-568.31573	-1078.22534	1379.17651	-364.70508	-928.66302	1134.58081	-277.99255	-1026.74890	1364.95898	-358.69705	-902.10437	1086.86108	-447.28470	-989.84589	1169.08228	-406.18518	-859.15845	1134.92297	-332.02878	-1118.72559	1579.38416	-430.45322	-1001.50891	1331.85864	-450.10858	-948.90082	189.26646	-467.90308	-1041.07422	1642.11108	-283.85544	-1139.62988	902.70532	-357.91730	-1017.72095	1651.29248	-449.29266	-1142.02075	1573.30090	-398.97275	-1138.43213	1411.79529	-791.83386	-1293.94116	1007.92975	-762.56854	-1243.12793	1006.35950	-768.18237	-1310.83325	1131.76648	-243.69441	-1332.79700	611.66327	-267.87189	-1400.33264	465.54770	-720.23718	-1329.59692	1245.31543	-816.27795	-1242.99438	940.18909	-661.81555	-1215.34839	1323.00073	-258.02609	-1550.28943	370.52435	-291.73071	-1702.38550	224.23212	-325.54852	-1715.63513	72.29229	-341.91769	-1740.57202	254.07327	-384.75284	-1234.09363	1141.60815	-309.47205	-1214.54993	1240.00806	-489.37833	-1110.16260	926.74561	-467.44443	-1291.47034	960.49786	-330.28995	-1305.05200	961.58502	-510.90396	-931.32617	226.09204	-3101.86865	1973.19629	1023.51343	-3140.61230	2012.52747	1022.18042	-507.15436	-906.95471	203.46362	-299.26843	-1201.83887	1242.66614																			-377.06931	-1040.09607	1682.50171																																							 
3	0.020	-542.85547	-839.82196	607.81396	-166.02193	-1007.55420	1053.28882	-557.11987	-916.70355	717.81427	-167.51668	-1005.75177	1185.45850	-558.70856	-846.74994	417.75314	-264.92456	-927.59735	1055.44324	-505.12103	-698.01837	120.04926	-571.86536	-1032.95605	1380.62866	-365.78598	-887.26086	1140.48743	-281.86472	-979.96167	1368.30957	-360.43665	-860.12628	1093.58923	-451.14081	-941.96497	1173.19775	-410.17081	-818.34247	1141.97620	-336.02310	-1071.55835	1581.87878	-434.88901	-954.71594	1335.35779	-451.32071	-871.27960	177.92735	-471.59760	-993.75232	1645.00110	-284.64548	-1089.00146	905.51074	-361.64566	-970.88879	1653.91443	-453.36862	-1094.70532	1576.09412	-402.39371	-1091.91809	1413.83984	-794.71246	-1240.43481	1005.21625	-765.33643	-1189.89771	1005.18329	-771.20667	-1261.91821	1128.87085	-243.67636	-1282.61279	615.33008	-270.10568	-1349.08984	465.37625	-723.84088	-1281.59387	1241.82654	-817.44397	-1187.78259	937.42126	-666.66949	-1168.83850	1323.03040	-259.93219	-1504.17297	378.75070	-292.54230	-1668.56995	246.41447	-321.98331	-1687.98804	95.27985	-342.99896	-1704.42456	277.93396	-385.70099	-1185.77466	1144.04919	-312.35947	-1168.25842	1242.25781	-489.52704	-1059.62952	928.29681	-467.84637	-1240.41016	965.41229	-330.52643	-1251.99390	968.33289	-512.40387	-859.93695	212.96400	-3101.81909	1973.12964	1023.42310	-3140.67529	2012.60999	1022.14355							-508.96451	-831.80652	194.07695	-301.32700	-1154.31482	1245.14697													-380.49316	-990.86664	1685.46411																																							 
4	0.030	-545.48615	-799.34973	594.85083	-164.01445	-962.47778	1057.40613	-559.56665	-870.55377	708.37036	-167.81372	-959.50183	1188.52014	-561.40680	-796.27240	404.85147	-263.81500	-884.61713	1058.09155	-508.34244	-622.85529	120.92526	-576.02075	-987.05127	1380.89636	-366.24936	-845.75671	1141.47180	-284.79749	-933.67548	1371.52441	-361.15231	-818.65033	1094.40747	-454.01102	-894.15094	1176.37830	-412.60431	-777.21558	1141.82153	-340.18817	-1024.55017	1583.72327	-438.89392	-907.92749	1338.07837	-453.07202	-800.05322	166.51233	-475.39908	-946.76263	1647.26196	-285.89786	-1038.77380	907.73779	-365.40463	-924.05237	1656.01172	-457.54697	-1047.48645	1577.99280	-406.37268	-1045.16028	1414.94885	-797.34021	-1184.38599	999.84564	-767.22180	-1134.15784	1001.45160	-774.38312	-1210.53076	1122.78674	-244.66272	-1229.45178	613.66412	-271.66046	-1295.54382	462.34830	-727.84393	-1232.79175	1235.35181	-817.87628	-1129.03528	932.77100	-672.08667	-1121.68079	1320.13318	-262.20499	-1455.43323	385.88559	-294.58105	-1630.46814	268.28601	-323.01459	-1658.93384	117.99535	-344.81192	-1665.64734	302.21661	-387.15939	-1137.83130	1146.35083	-315.80487	-1121.72314	1243.57239	-489.76071	-1009.89496	929.53705	-467.94315	-1189.59009	969.39923	-330.40808	-1199.66150	974.15503	-513.88464	-791.60260	198.15630	-3101.83740	1973.03076	1023.47192	-3140.65649	2012.58704	1022.01404	-510.75604	-762.64130	185.17111	-303.97137	-1107.60889	1246.06494																			-384.53760	-943.35730	1688.26929																																							 
